<svg width="13" height="16" viewBox="0 0 13 16" fill="none" xmlns="http://www.w3.org/2000/svg">
<path d="M7.5 9.125V5C7.5 4.20435 7.18393 3.44129 6.62132 2.87868C6.05871 2.31607 5.29565 2 4.5 2C3.70435 2 2.94129 2.31607 2.37868 2.87868C1.81607 3.44129 1.5 4.20435 1.5 5V9.125C1.5 10.4179 2.01361 11.6579 2.92785 12.5721C3.84209 13.4864 5.08207 14 6.375 14C7.66793 14 8.90791 13.4864 9.82215 12.5721C10.7364 11.6579 11.25 10.4179 11.25 9.125V2H12.75V9.125C12.75 10.8158 12.0784 12.4373 10.8828 13.6328C9.68726 14.8284 8.06575 15.5 6.375 15.5C4.68425 15.5 3.06274 14.8284 1.86719 13.6328C0.67165 12.4373 0 10.8158 0 9.125V5C0 3.80653 0.474106 2.66193 1.31802 1.81802C2.16193 0.974106 3.30653 0.5 4.5 0.5C5.69347 0.5 6.83807 0.974106 7.68198 1.81802C8.52589 2.66193 9 3.80653 9 5V9.125C9 9.82119 8.72344 10.4889 8.23116 10.9812C7.73887 11.4734 7.07119 11.75 6.375 11.75C5.67881 11.75 5.01113 11.4734 4.51884 10.9812C4.02656 10.4889 3.75 9.82119 3.75 9.125V5H5.25V9.125C5.25 9.42337 5.36853 9.70952 5.5795 9.9205C5.79048 10.1315 6.07663 10.25 6.375 10.25C6.67337 10.25 6.95952 10.1315 7.1705 9.9205C7.38147 9.70952 7.5 9.42337 7.5 9.125Z" fill="#666666"/>
</svg>
