<svg width="24" height="24" viewBox="0 0 24 24" fill="none" xmlns="http://www.w3.org/2000/svg">
<path fill-rule="evenodd" clip-rule="evenodd" d="M2.25 2C2.25 1.58579 2.58579 1.25 3 1.25H21C21.4142 1.25 21.75 1.58579 21.75 2V14C21.75 14.1989 21.671 14.3897 21.5303 14.5303L17.5303 18.5303C17.3897 18.671 17.1989 18.75 17 18.75H12.3107L8.53033 22.5303C8.31583 22.7448 7.99324 22.809 7.71299 22.6929C7.43273 22.5768 7.25 22.3033 7.25 22V18.75H3C2.58579 18.75 2.25 18.4142 2.25 18V2ZM3.75 2.75V17.25H8C8.41421 17.25 8.75 17.5858 8.75 18V20.1893L11.4697 17.4697C11.6103 17.329 11.8011 17.25 12 17.25H16.6893L20.25 13.6893V2.75H3.75ZM11 6.25C11.4142 6.25 11.75 6.58579 11.75 7V11C11.75 11.4142 11.4142 11.75 11 11.75C10.5858 11.75 10.25 11.4142 10.25 11V7C10.25 6.58579 10.5858 6.25 11 6.25ZM16 6.25C16.4142 6.25 16.75 6.58579 16.75 7V11C16.75 11.4142 16.4142 11.75 16 11.75C15.5858 11.75 15.25 11.4142 15.25 11V7C15.25 6.58579 15.5858 6.25 16 6.25Z" fill="#2C332D"/>
</svg>
