<svg width="24" height="24" viewBox="0 0 24 24" fill="none" xmlns="http://www.w3.org/2000/svg">
<path fill-rule="evenodd" clip-rule="evenodd" d="M12 10C10.8954 10 10 10.8954 10 12C10 13.1046 10.8954 14 12 14C13.1046 14 14 13.1046 14 12C14 10.8954 13.1046 10 12 10ZM8 12C8 9.79086 9.79086 8 12 8C14.2091 8 16 9.79086 16 12C16 14.2091 14.2091 16 12 16C9.79086 16 8 14.2091 8 12Z" fill="#2C332D"/>
<path fill-rule="evenodd" clip-rule="evenodd" d="M8.72958 4.54104C8.72958 3.13766 9.86724 2 11.2706 2H12.7293C14.1327 2 15.2703 3.13766 15.2703 4.54104C15.2703 4.74442 15.4106 5.01577 15.7458 5.19782C15.8489 5.25384 15.9507 5.31209 16.0509 5.37252C16.3852 5.57406 16.6991 5.56113 16.8833 5.45569C18.1071 4.75547 19.6666 5.17332 20.3764 6.39162L21.0808 7.60076C21.7919 8.8214 21.3722 10.3877 20.1461 11.0892C19.9683 11.1909 19.8012 11.4496 19.8093 11.8346C19.8105 11.8896 19.8111 11.9448 19.8111 12C19.8111 12.0552 19.8105 12.1104 19.8093 12.1654C19.8012 12.5504 19.9683 12.8091 20.1461 12.9108C21.3722 13.6123 21.7919 15.1786 21.0808 16.3992L20.3763 17.6084C19.6666 18.8267 18.1071 19.2445 16.8833 18.5443C16.699 18.4389 16.3852 18.4259 16.0509 18.6275C15.9507 18.6879 15.8489 18.7462 15.7458 18.8022C15.4106 18.9842 15.2703 19.2556 15.2703 19.459C15.2703 20.8623 14.1327 22 12.7293 22H11.2706C9.86724 22 8.72958 20.8623 8.72958 19.459C8.72958 19.2556 8.58932 18.9842 8.25412 18.8022C8.15097 18.7462 8.04924 18.6879 7.949 18.6275C7.61469 18.4259 7.30087 18.4389 7.1166 18.5443C5.89281 19.2445 4.33333 18.8267 3.62358 17.6084L2.91914 16.3992C2.20803 15.1786 2.62769 13.6123 3.85383 12.9108C4.03159 12.8091 4.19873 12.5504 4.19059 12.1654C4.18942 12.1104 4.18884 12.0553 4.18884 12C4.18884 11.9448 4.18942 11.8896 4.19059 11.8346C4.19873 11.4497 4.03158 11.191 3.85381 11.0892C2.62766 10.3877 2.20799 8.82141 2.91911 7.60077L3.62353 6.39163C4.33328 5.17333 5.89278 4.75548 7.11657 5.4557C7.30084 5.56113 7.61468 5.57407 7.94899 5.37253C8.04924 5.3121 8.15097 5.25384 8.25412 5.19782C8.58932 5.01577 8.72958 4.74442 8.72958 4.54104ZM11.2706 4C10.9718 4 10.7296 4.24223 10.7296 4.54104C10.7296 5.64708 10.0241 6.51246 9.20863 6.95535C9.13188 6.99703 9.05616 7.04039 8.98155 7.08537C8.18608 7.5649 7.08407 7.74134 6.12333 7.19163C5.85297 7.03694 5.50845 7.12925 5.35166 7.39839L4.64724 8.60754C4.49521 8.86848 4.58493 9.20332 4.84706 9.3533C5.80937 9.90391 6.20977 10.9487 6.19014 11.8769C6.18927 11.9178 6.18884 11.9589 6.18884 12C6.18884 12.0412 6.18927 12.0822 6.19014 12.1231C6.20978 13.0513 5.80938 14.0961 4.84707 14.6467C4.58496 14.7967 4.49525 15.1315 4.64726 15.3924L5.35171 16.6016C5.5085 16.8708 5.85301 16.9631 6.12336 16.8084C7.0841 16.2587 8.1861 16.4351 8.98156 16.9146C9.05617 16.9596 9.13188 17.003 9.20863 17.0447C10.0241 17.4875 10.7296 18.3529 10.7296 19.459C10.7296 19.7578 10.9718 20 11.2706 20H12.7293C13.0281 20 13.2703 19.7578 13.2703 19.459C13.2703 18.3529 13.9758 17.4875 14.7913 17.0447C14.868 17.003 14.9437 16.9596 15.0183 16.9146C15.8138 16.4351 16.9158 16.2587 17.8765 16.8084C18.1469 16.9631 18.4914 16.8708 18.6482 16.6016L19.3526 15.3924C19.5047 15.1315 19.4149 14.7967 19.1528 14.6467C18.1905 14.0961 17.7901 13.0513 17.8098 12.1231C17.8106 12.0822 17.8111 12.0412 17.8111 12C17.8111 11.9589 17.8106 11.9178 17.8098 11.8769C17.7901 10.9487 18.1905 9.9039 19.1528 9.35329C19.415 9.20331 19.5047 8.86848 19.3527 8.60753L18.6482 7.39839C18.4915 7.12924 18.1469 7.03693 17.8766 7.19162C16.9158 7.74134 15.8138 7.5649 15.0183 7.08536C14.9437 7.04039 14.868 6.99703 14.7913 6.95535C13.9758 6.51246 13.2703 5.64708 13.2703 4.54104C13.2703 4.24223 13.0281 4 12.7293 4H11.2706Z" fill="#2C332D"/>
</svg>
