<svg width="24" height="24" viewBox="0 0 24 24" fill="none" xmlns="http://www.w3.org/2000/svg">
<path fill-rule="evenodd" clip-rule="evenodd" d="M4 7.75C3.30964 7.75 2.75 8.30964 2.75 9V19C2.75 19.6904 3.30964 20.25 4 20.25H20C20.6904 20.25 21.25 19.6904 21.25 19V9C21.25 8.30964 20.6904 7.75 20 7.75H4ZM1.25 9C1.25 7.48122 2.48122 6.25 4 6.25H20C21.5188 6.25 22.75 7.48122 22.75 9V19C22.75 20.5188 21.5188 21.75 20 21.75H4C2.48122 21.75 1.25 20.5188 1.25 19V9Z" fill="#2C332D"/>
<path fill-rule="evenodd" clip-rule="evenodd" d="M8.05546 3.05546C8.57118 2.53973 9.27065 2.25 10 2.25H14C14.7293 2.25 15.4288 2.53973 15.9445 3.05546C16.4603 3.57118 16.75 4.27065 16.75 5V21C16.75 21.4142 16.4142 21.75 16 21.75C15.5858 21.75 15.25 21.4142 15.25 21V5C15.25 4.66848 15.1183 4.35054 14.8839 4.11612C14.6495 3.8817 14.3315 3.75 14 3.75H10C9.66848 3.75 9.35054 3.8817 9.11612 4.11612C8.8817 4.35054 8.75 4.66848 8.75 5V21C8.75 21.4142 8.41421 21.75 8 21.75C7.58579 21.75 7.25 21.4142 7.25 21V5C7.25 4.27065 7.53973 3.57118 8.05546 3.05546Z" fill="#2C332D"/>
</svg>
