<svg width="24" height="24" viewBox="0 0 24 24" fill="none" xmlns="http://www.w3.org/2000/svg">
<path fill-rule="evenodd" clip-rule="evenodd" d="M12 3.53846C10.1538 3.53846 8.65714 5.03085 8.65714 6.8718C8.65714 8.71274 10.1538 10.2051 12 10.2051C13.8462 10.2051 15.3429 8.71274 15.3429 6.8718C15.3429 5.03085 13.8462 3.53846 12 3.53846ZM7.11429 6.8718C7.11429 4.18118 9.30169 2 12 2C14.6983 2 16.8857 4.18118 16.8857 6.8718C16.8857 9.56241 14.6983 11.7436 12 11.7436C9.30169 11.7436 7.11429 9.56241 7.11429 6.8718ZM4.43099 15.7346C5.34724 14.821 6.58994 14.3077 7.88571 14.3077H16.1143C17.4101 14.3077 18.6528 14.821 19.569 15.7346C20.4853 16.6482 21 17.8874 21 19.1795V21.2308C21 21.6556 20.6546 22 20.2286 22C19.8025 22 19.4571 21.6556 19.4571 21.2308V19.1795C19.4571 18.2954 19.1049 17.4476 18.478 16.8225C17.8511 16.1973 17.0009 15.8462 16.1143 15.8462H7.88571C6.99913 15.8462 6.14886 16.1973 5.52196 16.8225C4.89505 17.4476 4.54286 18.2954 4.54286 19.1795V21.2308C4.54286 21.6556 4.19748 22 3.77143 22C3.34538 22 3 21.6556 3 21.2308V19.1795C3 17.8874 3.51474 16.6482 4.43099 15.7346Z" fill="black"/>
</svg>
